<svg width="146" height="145" viewBox="0 0 146 145" fill="none" xmlns="http://www.w3.org/2000/svg">
<g id="cloudy-night-2">
<g id="cloudy-night-2_2">
<g id="Group">
<g id="Group_2">
<g id="Group_3">
<path id="Vector" d="M88.0539 34.3041L89.3178 36.4707L91.4844 37.554L89.3178 38.8178L88.0539 40.9844L86.9707 38.8178L84.8041 37.554L86.9707 36.4707L88.0539 34.3041Z" fill="#FFA500"/>
</g>
<g id="Group_4">
<path id="Vector_2" d="M124.164 52.3589L125.427 54.5255L127.594 55.6087L125.427 56.8726L124.164 59.0392L123.08 56.8726L120.914 55.6087L123.08 54.5255L124.164 52.3589Z" fill="#FFA500"/>
</g>
<g id="Group_5">
<path id="Vector_3" d="M108.275 55.4282C108.275 48.7479 111.886 42.9704 117.303 39.7205C114.594 38.0956 111.525 37.3734 108.275 37.3734C98.3452 37.3734 90.2205 45.4981 90.2205 55.4282C90.2205 65.3583 98.3452 73.483 108.275 73.483C111.525 73.483 114.594 72.5803 117.303 71.1359C111.886 68.0666 108.275 62.1085 108.275 55.4282Z" fill="#FFA500" stroke="#FFA500" stroke-width="1.6" stroke-linejoin="round"/>
</g>
</g>
<g id="Group_6">
<path id="Vector_4" d="M108.501 77.6356C108.501 67.2541 100.151 59.1295 89.9948 59.1295C87.738 59.1295 85.7068 59.5808 83.6757 60.2579C82.9986 52.5846 76.6794 46.2654 68.7805 46.2654C60.4301 46.2654 53.6596 53.036 53.6596 61.3863C53.6596 63.1918 54.1109 64.9973 54.5623 66.5771C53.8853 66.3514 52.9825 66.3514 52.3055 66.3514C43.9551 66.3514 37.1846 73.1219 37.1846 81.4723C37.1846 89.5969 43.7294 96.3675 51.8541 96.5931H90.6719C100.602 95.4647 108.501 87.5658 108.501 77.6356Z" fill="#91C0F8" stroke="white" stroke-width="1.2" stroke-linejoin="round"/>
</g>
</g>
</g>
</g>
</svg>
