<svg width="145" height="145" viewBox="0 0 145 145" fill="none" xmlns="http://www.w3.org/2000/svg">
<g id="cloudy-night-3">
<g id="cloudy-night-3_2">
<g id="Group">
<g id="Group_2">
<g id="Group_3">
<path id="Vector" d="M87.7663 34.3041L89.0301 36.4707L91.1967 37.554L89.0301 38.8178L87.7663 40.9844L86.683 38.8178L84.5164 37.554L86.683 36.4707L87.7663 34.3041Z" fill="#FFA500"/>
</g>
<g id="Group_4">
<path id="Vector_2" d="M123.876 52.3589L125.14 54.5255L127.306 55.6087L125.14 56.8726L123.876 59.0392L122.793 56.8726L120.626 55.6087L122.793 54.5255L123.876 52.3589Z" fill="#FFA500"/>
</g>
<g id="Group_5">
<path id="Vector_3" d="M107.988 55.4282C107.988 48.7479 111.599 42.9704 117.015 39.7205C114.307 38.0956 111.238 37.3734 107.988 37.3734C98.0575 37.3734 89.9329 45.4981 89.9329 55.4282C89.9329 65.3583 98.0575 73.483 107.988 73.483C111.238 73.483 114.307 72.5803 117.015 71.1359C111.599 68.0666 107.988 62.1085 107.988 55.4282Z" fill="#FFA500" stroke="#FFA500" stroke-width="1.6" stroke-linejoin="round"/>
</g>
</g>
<g id="Group_6">
<path id="Vector_4" d="M108.213 77.6356C108.213 67.2541 99.863 59.1295 89.7072 59.1295C87.4503 59.1295 85.4192 59.5808 83.388 60.2579C82.711 52.5846 76.3918 46.2654 68.4928 46.2654C60.1425 46.2654 53.3719 53.036 53.3719 61.3863C53.3719 63.1918 53.8233 64.9973 54.2746 66.5771C53.5976 66.3514 52.6949 66.3514 52.0178 66.3514C43.6675 66.3514 36.8969 73.1219 36.8969 81.4723C36.8969 89.5969 43.4418 96.3675 51.5664 96.5931H90.3842C100.314 95.4647 108.213 87.5658 108.213 77.6356Z" fill="#57A0EE" stroke="white" stroke-width="1.2" stroke-linejoin="round"/>
</g>
</g>
</g>
</g>
</svg>
