<svg width="145" height="145" viewBox="0 0 145 145" fill="none" xmlns="http://www.w3.org/2000/svg">
<g id="cloudy-day-3">
<g id="cloudy-day-3_2">
<g id="Group">
<g id="Group_2">
<g id="Group_3">
<g id="Group_4">
<path id="Vector" d="M45.5617 78.9897V85.7603" stroke="#FFA500" stroke-width="2" stroke-linecap="round"/>
</g>
<g id="Group_5">
<path id="Vector_2" d="M31.1992 73.0406L26.4117 77.8281" stroke="#FFA500" stroke-width="2" stroke-linecap="round"/>
</g>
<g id="Group_6">
<path id="Vector_3" d="M25.25 58.6781H18.4795" stroke="#FFA500" stroke-width="2" stroke-linecap="round"/>
</g>
<g id="Group_7">
<path id="Vector_4" d="M31.1992 44.3156L26.4117 39.5281" stroke="#FFA500" stroke-width="2" stroke-linecap="round"/>
</g>
<g id="Group_8">
<path id="Vector_5" d="M45.5617 38.3664V31.5959" stroke="#FFA500" stroke-width="2" stroke-linecap="round"/>
</g>
<g id="Group_9">
<path id="Vector_6" d="M59.9242 44.3156L64.7117 39.5281" stroke="#FFA500" stroke-width="2" stroke-linecap="round"/>
</g>
<g id="Group_10">
<path id="Vector_7" d="M65.8733 58.6781H72.6439" stroke="#FFA500" stroke-width="2" stroke-linecap="round"/>
</g>
<g id="Group_11">
<path id="Vector_8" d="M59.9242 73.0406L64.7117 77.8281" stroke="#FFA500" stroke-width="2" stroke-linecap="round"/>
</g>
</g>
<path id="Vector_9" d="M45.5617 69.9623C51.7938 69.9623 56.8459 64.9102 56.8459 58.6781C56.8459 52.446 51.7938 47.3938 45.5617 47.3938C39.3295 47.3938 34.2774 52.446 34.2774 58.6781C34.2774 64.9102 39.3295 69.9623 45.5617 69.9623Z" fill="#FFA500" stroke="#FFA500" stroke-width="2"/>
</g>
<g id="Group_12">
<path id="Vector_10" d="M108.076 77.6356C108.076 67.2541 99.726 59.1295 89.5702 59.1295C87.3134 59.1295 85.2822 59.5808 83.251 60.2579C82.574 52.5846 76.2548 46.2654 68.3558 46.2654C60.0055 46.2654 53.2349 53.036 53.2349 61.3863C53.2349 63.1918 53.6863 64.9973 54.1377 66.5771C53.4606 66.3514 52.5579 66.3514 51.8808 66.3514C43.5305 66.3514 36.7599 73.1219 36.7599 81.4723C36.7599 89.5969 43.3048 96.3675 51.4295 96.5931H90.2473C100.177 95.4647 108.076 87.5658 108.076 77.6356Z" fill="#57A0EE" stroke="white" stroke-width="1.2" stroke-linejoin="round"/>
</g>
</g>
</g>
</g>
</svg>
