<svg width="145" height="145" viewBox="0 0 145 145" fill="none" xmlns="http://www.w3.org/2000/svg">
<g id="cloudy-night-1">
<g id="cloudy-night-1_2">
<g id="Group">
<g id="Group_2">
<g id="Group_3">
<path id="Vector" d="M87.3416 34.3041L88.6055 36.4707L90.772 37.554L88.6055 38.8178L87.3416 40.9844L86.2583 38.8178L84.0918 37.554L86.2583 36.4707L87.3416 34.3041Z" fill="#FFA500"/>
</g>
<g id="Group_4">
<path id="Vector_2" d="M123.451 52.3589L124.715 54.5255L126.882 55.6087L124.715 56.8726L123.451 59.0392L122.368 56.8726L120.201 55.6087L122.368 54.5255L123.451 52.3589Z" fill="#FFA500"/>
</g>
<g id="Group_5">
<path id="Vector_3" d="M107.563 55.4282C107.563 48.7479 111.174 42.9704 116.59 39.7205C113.882 38.0956 110.813 37.3734 107.563 37.3734C97.6329 37.3734 89.5082 45.4981 89.5082 55.4282C89.5082 65.3583 97.6329 73.483 107.563 73.483C110.813 73.483 113.882 72.5803 116.59 71.1359C111.174 68.0666 107.563 62.1085 107.563 55.4282Z" fill="#FFA500" stroke="#FFA500" stroke-width="1.6" stroke-linejoin="round"/>
</g>
</g>
<g id="Group_6">
<path id="Vector_4" d="M107.789 77.6356C107.789 67.2541 99.4383 59.1295 89.2825 59.1295C87.0257 59.1295 84.9945 59.5808 82.9633 60.2579C82.2863 52.5846 75.9671 46.2654 68.0681 46.2654C59.7178 46.2654 52.9472 53.036 52.9472 61.3863C52.9472 63.1918 53.3986 64.9973 53.85 66.5771C53.1729 66.3514 52.2702 66.3514 51.5931 66.3514C43.2428 66.3514 36.4722 73.1219 36.4722 81.4723C36.4722 89.5969 43.0171 96.3675 51.1418 96.5931H89.9596C99.8897 95.4647 107.789 87.5658 107.789 77.6356Z" fill="#C6DEFF" stroke="white" stroke-width="1.2" stroke-linejoin="round"/>
</g>
</g>
</g>
</g>
</svg>
