<svg width="145" height="146" viewBox="0 0 145 146" fill="none" xmlns="http://www.w3.org/2000/svg">
<g id="cloudy">
<g id="cloudy_2">
<g id="Group">
<g id="Group_2">
<path id="Vector" d="M87.1595 53.1616C87.1595 46.9327 82.1493 42.0579 76.0558 42.0579C74.7017 42.0579 73.483 42.3287 72.2643 42.7349C71.8581 38.131 68.0665 34.3394 63.3272 34.3394C58.317 34.3394 54.2546 38.4018 54.2546 43.412C54.2546 44.4953 54.5254 45.5786 54.7963 46.5264C54.39 46.391 53.8484 46.391 53.4422 46.391C48.432 46.391 44.3696 50.4533 44.3696 55.4636C44.3696 60.3383 48.2965 64.4007 53.1713 64.5361H76.462C82.4201 63.859 87.1595 59.1197 87.1595 53.1616Z" fill="#91C0F8" stroke="white" stroke-width="0.72" stroke-linejoin="round"/>
</g>
<g id="Group_3">
<path id="Vector_2" d="M107.652 78.348C107.652 67.9665 99.3014 59.8418 89.1455 59.8418C86.8887 59.8418 84.8575 60.2932 82.8264 60.9703C82.1493 53.297 75.8301 46.9778 67.9312 46.9778C59.5808 46.9778 52.8103 53.7483 52.8103 62.0987C52.8103 63.9042 53.2616 65.7096 53.713 67.2894C53.0359 67.0638 52.1332 67.0638 51.4562 67.0638C43.1058 67.0638 36.3353 73.8343 36.3353 82.1846C36.3353 90.3093 42.8801 97.0798 51.0048 97.3055H89.8226C99.7527 96.1771 107.652 88.2781 107.652 78.348Z" fill="#57A0EE" stroke="white" stroke-width="1.2" stroke-linejoin="round"/>
</g>
</g>
</g>
</g>
</svg>
