<svg width="146" height="145" viewBox="0 0 146 145" fill="none" xmlns="http://www.w3.org/2000/svg">
<g id="cloudy-day-2">
<g id="cloudy-day-2_2">
<g id="Group">
<g id="Group_2">
<g id="Group_3">
<g id="Group_4">
<path id="Vector" d="M45.8493 78.9897V85.7603" stroke="#FFA500" stroke-width="2" stroke-linecap="round"/>
</g>
<g id="Group_5">
<path id="Vector_2" d="M31.4868 73.0406L26.6993 77.8281" stroke="#FFA500" stroke-width="2" stroke-linecap="round"/>
</g>
<g id="Group_6">
<path id="Vector_3" d="M25.5376 58.6781H18.7671" stroke="#FFA500" stroke-width="2" stroke-linecap="round"/>
</g>
<g id="Group_7">
<path id="Vector_4" d="M31.4868 44.3156L26.6993 39.5281" stroke="#FFA500" stroke-width="2" stroke-linecap="round"/>
</g>
<g id="Group_8">
<path id="Vector_5" d="M45.8493 38.3664V31.5959" stroke="#FFA500" stroke-width="2" stroke-linecap="round"/>
</g>
<g id="Group_9">
<path id="Vector_6" d="M60.2118 44.3156L64.9993 39.5281" stroke="#FFA500" stroke-width="2" stroke-linecap="round"/>
</g>
<g id="Group_10">
<path id="Vector_7" d="M66.1609 58.6781H72.9315" stroke="#FFA500" stroke-width="2" stroke-linecap="round"/>
</g>
<g id="Group_11">
<path id="Vector_8" d="M60.2118 73.0406L64.9993 77.8281" stroke="#FFA500" stroke-width="2" stroke-linecap="round"/>
</g>
</g>
<path id="Vector_9" d="M45.8493 69.9623C52.0814 69.9623 57.1335 64.9102 57.1335 58.6781C57.1335 52.446 52.0814 47.3938 45.8493 47.3938C39.6172 47.3938 34.565 52.446 34.565 58.6781C34.565 64.9102 39.6172 69.9623 45.8493 69.9623Z" fill="#FFA500" stroke="#FFA500" stroke-width="2"/>
</g>
<g id="Group_12">
<path id="Vector_10" d="M108.364 77.6356C108.364 67.2541 100.014 59.1295 89.8578 59.1295C87.601 59.1295 85.5698 59.5808 83.5387 60.2579C82.8616 52.5846 76.5424 46.2654 68.6435 46.2654C60.2931 46.2654 53.5226 53.036 53.5226 61.3863C53.5226 63.1918 53.9739 64.9973 54.4253 66.5771C53.7483 66.3514 52.8455 66.3514 52.1685 66.3514C43.8181 66.3514 37.0476 73.1219 37.0476 81.4723C37.0476 89.5969 43.5924 96.3675 51.7171 96.5931H90.5349C100.465 95.4647 108.364 87.5658 108.364 77.6356Z" fill="#91C0F8" stroke="white" stroke-width="1.2" stroke-linejoin="round"/>
</g>
</g>
</g>
</g>
</svg>
