<svg width="145" height="145" viewBox="0 0 145 145" fill="none" xmlns="http://www.w3.org/2000/svg">
<g id="cloudy-day-1">
<g id="cloudy-day-1_2">
<g id="Group">
<g id="Group_2">
<g id="Group_3">
<g id="Group_4">
<path id="Vector" d="M45.137 78.9897V85.7603" stroke="#FFA500" stroke-width="2" stroke-linecap="round"/>
</g>
<g id="Group_5">
<path id="Vector_2" d="M30.7745 73.0406L25.987 77.8281" stroke="#FFA500" stroke-width="2" stroke-linecap="round"/>
</g>
<g id="Group_6">
<path id="Vector_3" d="M24.8254 58.6781H18.0548" stroke="#FFA500" stroke-width="2" stroke-linecap="round"/>
</g>
<g id="Group_7">
<path id="Vector_4" d="M30.7745 44.3156L25.987 39.5281" stroke="#FFA500" stroke-width="2" stroke-linecap="round"/>
</g>
<g id="Group_8">
<path id="Vector_5" d="M45.137 38.3664V31.5959" stroke="#FFA500" stroke-width="2" stroke-linecap="round"/>
</g>
<g id="Group_9">
<path id="Vector_6" d="M59.4995 44.3156L64.287 39.5281" stroke="#FFA500" stroke-width="2" stroke-linecap="round"/>
</g>
<g id="Group_10">
<path id="Vector_7" d="M65.4487 58.6781H72.2192" stroke="#FFA500" stroke-width="2" stroke-linecap="round"/>
</g>
<g id="Group_11">
<path id="Vector_8" d="M59.4995 73.0406L64.287 77.8281" stroke="#FFA500" stroke-width="2" stroke-linecap="round"/>
</g>
</g>
<path id="Vector_9" d="M45.137 69.9623C51.3691 69.9623 56.4213 64.9102 56.4213 58.6781C56.4213 52.446 51.3691 47.3938 45.137 47.3938C38.9049 47.3938 33.8528 52.446 33.8528 58.6781C33.8528 64.9102 38.9049 69.9623 45.137 69.9623Z" fill="#FFA500" stroke="#FFA500" stroke-width="2"/>
</g>
<g id="Group_12">
<path id="Vector_10" d="M107.652 77.6356C107.652 67.2541 99.3014 59.1295 89.1455 59.1295C86.8887 59.1295 84.8575 59.5808 82.8264 60.2579C82.1493 52.5846 75.8301 46.2654 67.9312 46.2654C59.5808 46.2654 52.8103 53.036 52.8103 61.3863C52.8103 63.1918 53.2616 64.9973 53.713 66.5771C53.0359 66.3514 52.1332 66.3514 51.4562 66.3514C43.1058 66.3514 36.3353 73.1219 36.3353 81.4723C36.3353 89.5969 42.8801 96.3675 51.0048 96.5931H89.8226C99.7527 95.4647 107.652 87.5658 107.652 77.6356Z" fill="#C6DEFF" stroke="white" stroke-width="1.2" stroke-linejoin="round"/>
</g>
</g>
</g>
</g>
</svg>
