<svg width="145" height="146" viewBox="0 0 145 146" fill="none" xmlns="http://www.w3.org/2000/svg">
<g id="night">
<g id="night_2">
<g id="Group">
<g id="Group_2">
<path id="Vector" d="M53.0093 49.2347L54.5891 51.9429L57.2973 53.297L54.5891 54.8768L53.0093 57.585L51.6552 54.8768L48.9469 53.297L51.6552 51.9429L53.0093 49.2347Z" fill="#FFA500"/>
</g>
<g id="Group_3">
<path id="Vector_2" d="M98.1463 71.8032L99.7261 74.5114L102.434 75.8655L99.7261 77.4453L98.1463 80.1535L96.7922 77.4453L94.0839 75.8655L96.7922 74.5114L98.1463 71.8032Z" fill="#FFA500"/>
</g>
<g id="Group_4">
<path id="Vector_3" d="M78.286 75.6398C78.286 67.2895 82.7997 60.0675 89.5702 56.0052C86.185 53.974 82.3483 53.0713 78.286 53.0713C65.8733 53.0713 55.7175 63.2271 55.7175 75.6398C55.7175 88.0525 65.8733 98.2083 78.286 98.2083C82.3483 98.2083 86.185 97.0799 89.5702 95.2744C82.7997 91.4377 78.286 83.9901 78.286 75.6398Z" fill="#FFA500" stroke="#FFA500" stroke-width="2" stroke-linejoin="round"/>
</g>
</g>
</g>
</g>
</svg>
