<svg width="145" height="145" viewBox="0 0 145 145" fill="none" xmlns="http://www.w3.org/2000/svg">
<g id="rainy-6">
<g id="rainy-6_2">
<g id="Group">
<g id="Group_2">
<path id="Vector" d="M108.076 78.0602C108.076 67.6787 99.726 59.554 89.5702 59.554C87.3134 59.554 85.2822 60.0054 83.251 60.6824C82.574 53.0092 76.2548 46.69 68.3558 46.69C60.0055 46.69 53.2349 53.4605 53.2349 61.8109C53.2349 63.6163 53.6863 65.4218 54.1377 67.0016C53.4606 66.7759 52.5579 66.7759 51.8808 66.7759C43.5305 66.7759 36.7599 73.5465 36.7599 81.8968C36.7599 90.0215 43.3048 96.792 51.4295 97.0177H90.2473C100.177 95.8893 108.076 87.9903 108.076 78.0602Z" fill="#57A0EE" stroke="white" stroke-width="1.2" stroke-linejoin="round"/>
</g>
</g>
<g id="Group_3">
<path id="Vector_2" d="M61.1048 104.895L57.9697 122.675" stroke="#91C0F8" stroke-width="2" stroke-linecap="round" stroke-dasharray="4 4"/>
<path id="Vector_3" d="M70.7789 102.017L67.6437 119.798" stroke="#91C0F8" stroke-width="2" stroke-linecap="round" stroke-dasharray="4 4"/>
<path id="Vector_4" d="M79.2772 105.807L76.1421 123.588" stroke="#91C0F8" stroke-width="2" stroke-linecap="round" stroke-dasharray="4 4"/>
</g>
</g>
</g>
</svg>
