<svg width="145" height="145" viewBox="0 0 145 145" fill="none" xmlns="http://www.w3.org/2000/svg">
<g id="rainy-4">
<g id="rainy-4_2">
<g id="Group">
<g id="Group_2">
<path id="Vector" d="M107.652 78.0602C107.652 67.6787 99.3014 59.554 89.1455 59.554C86.8887 59.554 84.8575 60.0054 82.8264 60.6824C82.1493 53.0092 75.8301 46.69 67.9312 46.69C59.5808 46.69 52.8103 53.4605 52.8103 61.8109C52.8103 63.6163 53.2616 65.4218 53.713 67.0016C53.0359 66.7759 52.1332 66.7759 51.4562 66.7759C43.1058 66.7759 36.3353 73.5465 36.3353 81.8968C36.3353 90.0215 42.8801 96.792 51.0048 97.0177H89.8226C99.7527 95.8893 107.652 87.9903 107.652 78.0602Z" fill="#57A0EE" stroke="white" stroke-width="1.2" stroke-linejoin="round"/>
</g>
</g>
<g id="Group_3">
<path id="Vector_2" d="M69.7761 101.854L66.6409 119.634" stroke="#91C0F8" stroke-width="2" stroke-linecap="round" stroke-dasharray="4 7"/>
</g>
</g>
</g>
</svg>
