<svg width="145" height="146" viewBox="0 0 145 146" fill="none" xmlns="http://www.w3.org/2000/svg">
<g id="rainy-3">
<g id="rainy-3_2">
<g id="Group">
<g id="Group_2">
<g id="Group_3">
<g id="Group_4">
<path id="Vector" d="M45.6987 79.7021V86.4727" stroke="#FFA500" stroke-width="2" stroke-linecap="round"/>
</g>
<g id="Group_5">
<path id="Vector_2" d="M31.3361 73.753L26.5486 78.5405" stroke="#FFA500" stroke-width="2" stroke-linecap="round"/>
</g>
<g id="Group_6">
<path id="Vector_3" d="M25.387 59.3905H18.6165" stroke="#FFA500" stroke-width="2" stroke-linecap="round"/>
</g>
<g id="Group_7">
<path id="Vector_4" d="M31.3361 45.028L26.5486 40.2405" stroke="#FFA500" stroke-width="2" stroke-linecap="round"/>
</g>
<g id="Group_8">
<path id="Vector_5" d="M45.6987 39.0788V32.3083" stroke="#FFA500" stroke-width="2" stroke-linecap="round"/>
</g>
<g id="Group_9">
<path id="Vector_6" d="M60.0612 45.028L64.8487 40.2405" stroke="#FFA500" stroke-width="2" stroke-linecap="round"/>
</g>
<g id="Group_10">
<path id="Vector_7" d="M66.0103 59.3905H72.7809" stroke="#FFA500" stroke-width="2" stroke-linecap="round"/>
</g>
<g id="Group_11">
<path id="Vector_8" d="M60.0612 73.753L64.8487 78.5405" stroke="#FFA500" stroke-width="2" stroke-linecap="round"/>
</g>
</g>
<path id="Vector_9" d="M45.6987 70.6747C51.9308 70.6747 56.9829 65.6226 56.9829 59.3905C56.9829 53.1584 51.9308 48.1062 45.6987 48.1062C39.4666 48.1062 34.4144 53.1584 34.4144 59.3905C34.4144 65.6226 39.4666 70.6747 45.6987 70.6747Z" fill="#FFA500" stroke="#FFA500" stroke-width="2"/>
</g>
<g id="Group_12">
<path id="Vector_10" d="M108.213 78.348C108.213 67.9665 99.863 59.8419 89.7072 59.8419C87.4503 59.8419 85.4192 60.2932 83.388 60.9703C82.711 53.297 76.3918 46.9778 68.4928 46.9778C60.1425 46.9778 53.3719 53.7484 53.3719 62.0987C53.3719 63.9042 53.8233 65.7097 54.2746 67.2895C53.5976 67.0638 52.6949 67.0638 52.0178 67.0638C43.6675 67.0638 36.8969 73.8343 36.8969 82.1847C36.8969 90.3093 43.4418 97.0799 51.5664 97.3055H90.3842C100.314 96.1771 108.213 88.2782 108.213 78.348Z" fill="#57A0EE" stroke="white" stroke-width="1.2" stroke-linejoin="round"/>
</g>
</g>
<g id="Group_13">
<path id="Vector_11" d="M63.5673 104.399L60.4321 122.179" stroke="#91C0F8" stroke-width="2" stroke-linecap="round" stroke-dasharray="4 7"/>
<path id="Vector_12" d="M77.6865 102.305L74.5513 120.085" stroke="#91C0F8" stroke-width="2" stroke-linecap="round" stroke-dasharray="4 7"/>
</g>
</g>
</g>
</svg>
