<svg width="146" height="145" viewBox="0 0 146 145" fill="none" xmlns="http://www.w3.org/2000/svg">
<g id="rainy-5">
<g id="rainy-5_2">
<g id="Group">
<g id="Group_2">
<path id="Vector" d="M108.364 78.0602C108.364 67.6787 100.014 59.554 89.8578 59.554C87.601 59.554 85.5698 60.0054 83.5386 60.6824C82.8616 53.0092 76.5424 46.69 68.6434 46.69C60.2931 46.69 53.5225 53.4605 53.5225 61.8109C53.5225 63.6163 53.9739 65.4218 54.4253 67.0016C53.7482 66.7759 52.8455 66.7759 52.1684 66.7759C43.8181 66.7759 37.0475 73.5465 37.0475 81.8968C37.0475 90.0215 43.5924 96.792 51.7171 97.0177H90.5349C100.465 95.8893 108.364 87.9903 108.364 78.0602Z" fill="#57A0EE" stroke="white" stroke-width="1.2" stroke-linejoin="round"/>
</g>
</g>
<g id="Group_3">
<path id="Vector_2" d="M63.7179 104.111L60.5827 121.891" stroke="#91C0F8" stroke-width="2" stroke-linecap="round" stroke-dasharray="4 7"/>
<path id="Vector_3" d="M77.8371 102.017L74.7019 119.798" stroke="#91C0F8" stroke-width="2" stroke-linecap="round" stroke-dasharray="4 7"/>
</g>
</g>
</g>
</svg>
