<svg width="145" height="146" viewBox="0 0 145 146" fill="none" xmlns="http://www.w3.org/2000/svg">
<g id="rainy-1">
<g id="rainy-1_2">
<g id="Group">
<g id="Group_2">
<g id="Group_3">
<g id="Group_4">
<path id="Vector" d="M45.2739 83.7645V91.8891" stroke="#FFA500" stroke-width="2.4" stroke-linecap="round"/>
</g>
<g id="Group_5">
<path id="Vector_2" d="M28.039 76.6255L22.294 82.3705" stroke="#FFA500" stroke-width="2.4" stroke-linecap="round"/>
</g>
<g id="Group_6">
<path id="Vector_3" d="M20.9 59.3905H12.7753" stroke="#FFA500" stroke-width="2.4" stroke-linecap="round"/>
</g>
<g id="Group_7">
<path id="Vector_4" d="M28.039 42.1555L22.294 36.4105" stroke="#FFA500" stroke-width="2.4" stroke-linecap="round"/>
</g>
<g id="Group_8">
<path id="Vector_5" d="M45.2739 35.0165V26.8919" stroke="#FFA500" stroke-width="2.4" stroke-linecap="round"/>
</g>
<g id="Group_9">
<path id="Vector_6" d="M62.509 42.1555L68.254 36.4105" stroke="#FFA500" stroke-width="2.4" stroke-linecap="round"/>
</g>
<g id="Group_10">
<path id="Vector_7" d="M69.6479 59.3905H77.7726" stroke="#FFA500" stroke-width="2.4" stroke-linecap="round"/>
</g>
<g id="Group_11">
<path id="Vector_8" d="M62.509 76.6255L68.254 82.3705" stroke="#FFA500" stroke-width="2.4" stroke-linecap="round"/>
</g>
</g>
<path id="Vector_9" d="M45.274 72.9316C52.7525 72.9316 58.815 66.869 58.815 59.3905C58.815 51.912 52.7525 45.8494 45.274 45.8494C37.7954 45.8494 31.7329 51.912 31.7329 59.3905C31.7329 66.869 37.7954 72.9316 45.274 72.9316Z" fill="#FFA500" stroke="#FFA500" stroke-width="2.4"/>
</g>
<g id="Group_12">
<path id="Vector_10" d="M102.925 79.9052C102.925 71.081 95.8274 64.175 87.1949 64.175C85.2766 64.175 83.5501 64.5587 81.8236 65.1342C81.2481 58.6119 75.8768 53.2406 69.1627 53.2406C62.0649 53.2406 56.3099 58.9955 56.3099 66.0933C56.3099 67.628 56.6936 69.1626 57.0773 70.5055C56.5018 70.3136 55.7344 70.3136 55.159 70.3136C48.0612 70.3136 42.3062 76.0686 42.3062 83.1664C42.3062 90.0723 47.8693 95.8273 54.7753 96.0191H87.7704C96.211 95.06 102.925 88.3459 102.925 79.9052Z" fill="#57A0EE" stroke="white" stroke-width="1.275" stroke-linejoin="round"/>
</g>
</g>
<g id="Group_13">
<path id="Vector_11" d="M63.1426 104.399L60.0074 122.179" stroke="#91C0F8" stroke-width="2" stroke-linecap="round" stroke-dasharray="4 7"/>
<path id="Vector_12" d="M77.2617 102.305L74.1266 120.085" stroke="#91C0F8" stroke-width="2" stroke-linecap="round" stroke-dasharray="4 7"/>
</g>
</g>
</g>
</svg>
