<svg width="145" height="145" viewBox="0 0 145 145" fill="none" xmlns="http://www.w3.org/2000/svg">
<g id="rainy-7">
<g id="rainy-7_2">
<g id="Group">
<g id="Group_2">
<path id="Vector" d="M107.789 78.0602C107.789 67.6787 99.4383 59.554 89.2825 59.554C87.0257 59.554 84.9945 60.0054 82.9633 60.6824C82.2863 53.0092 75.9671 46.69 68.0681 46.69C59.7178 46.69 52.9472 53.4605 52.9472 61.8109C52.9472 63.6163 53.3986 65.4218 53.85 67.0016C53.1729 66.7759 52.2702 66.7759 51.5931 66.7759C43.2428 66.7759 36.4722 73.5465 36.4722 81.8968C36.4722 90.0215 43.0171 96.792 51.1418 97.0177H89.9596C99.8897 95.8893 107.789 87.9903 107.789 78.0602Z" fill="#57A0EE" stroke="white" stroke-width="1.2" stroke-linejoin="round"/>
</g>
</g>
<g id="Group_3">
<path id="Vector_2" d="M58.5946 104.503L55.4594 122.283" stroke="#91C0F8" stroke-width="3" stroke-linecap="round" stroke-dasharray="0.1 7"/>
<path id="Vector_3" d="M70.4912 102.017L67.356 119.798" stroke="#91C0F8" stroke-width="3" stroke-linecap="round" stroke-dasharray="0.1 7"/>
<path id="Vector_4" d="M81.2121 106.199L78.0769 123.98" stroke="#91C0F8" stroke-width="3" stroke-linecap="round" stroke-dasharray="0.1 7"/>
</g>
</g>
</g>
</svg>
