<svg width="146" height="146" viewBox="0 0 146 146" fill="none" xmlns="http://www.w3.org/2000/svg">
<g id="rainy-2">
<g id="rainy-2_2">
<g id="Group">
<g id="Group_2">
<g id="Group_3">
<g id="Group_4">
<path id="Vector" d="M45.9863 79.7021V86.4727" stroke="#FFA500" stroke-width="2" stroke-linecap="round"/>
</g>
<g id="Group_5">
<path id="Vector_2" d="M31.6238 73.753L26.8363 78.5405" stroke="#FFA500" stroke-width="2" stroke-linecap="round"/>
</g>
<g id="Group_6">
<path id="Vector_3" d="M25.6747 59.3905H18.9041" stroke="#FFA500" stroke-width="2" stroke-linecap="round"/>
</g>
<g id="Group_7">
<path id="Vector_4" d="M31.6238 45.028L26.8363 40.2405" stroke="#FFA500" stroke-width="2" stroke-linecap="round"/>
</g>
<g id="Group_8">
<path id="Vector_5" d="M45.9863 39.0788V32.3083" stroke="#FFA500" stroke-width="2" stroke-linecap="round"/>
</g>
<g id="Group_9">
<path id="Vector_6" d="M60.3488 45.028L65.1363 40.2405" stroke="#FFA500" stroke-width="2" stroke-linecap="round"/>
</g>
<g id="Group_10">
<path id="Vector_7" d="M66.2979 59.3905H73.0685" stroke="#FFA500" stroke-width="2" stroke-linecap="round"/>
</g>
<g id="Group_11">
<path id="Vector_8" d="M60.3488 73.753L65.1363 78.5405" stroke="#FFA500" stroke-width="2" stroke-linecap="round"/>
</g>
</g>
<path id="Vector_9" d="M45.9863 70.6747C52.2184 70.6747 57.2705 65.6226 57.2705 59.3905C57.2705 53.1584 52.2184 48.1062 45.9863 48.1062C39.7542 48.1062 34.7021 53.1584 34.7021 59.3905C34.7021 65.6226 39.7542 70.6747 45.9863 70.6747Z" fill="#FFA500" stroke="#FFA500" stroke-width="2"/>
</g>
<g id="Group_12">
<path id="Vector_10" d="M108.501 78.348C108.501 67.9665 100.151 59.8419 89.9949 59.8419C87.738 59.8419 85.7069 60.2932 83.6757 60.9703C82.9986 53.297 76.6795 46.9778 68.7805 46.9778C60.4301 46.9778 53.6596 53.7484 53.6596 62.0987C53.6596 63.9042 54.111 65.7097 54.5623 67.2895C53.8853 67.0638 52.9825 67.0638 52.3055 67.0638C43.9551 67.0638 37.1846 73.8343 37.1846 82.1847C37.1846 90.3093 43.7295 97.0799 51.8541 97.3055H90.6719C100.602 96.1771 108.501 88.2782 108.501 78.348Z" fill="#57A0EE" stroke="white" stroke-width="1.2" stroke-linejoin="round"/>
</g>
</g>
<g id="Group_13">
<path id="Vector_11" d="M70.6255 102.142L67.4903 119.922" stroke="#91C0F8" stroke-width="2" stroke-linecap="round" stroke-dasharray="4 7"/>
</g>
</g>
</g>
</svg>
