<svg width="145" height="145" viewBox="0 0 145 145" fill="none" xmlns="http://www.w3.org/2000/svg">
<g id="snowy-6">
<g id="snowy-6_2">
<g id="Group">
<g id="Group_2">
<path id="Vector" d="M107.789 77.7726C107.789 67.3911 99.4383 59.2664 89.2825 59.2664C87.0257 59.2664 84.9945 59.7178 82.9633 60.3948C82.2863 52.7216 75.9671 46.4024 68.0681 46.4024C59.7178 46.4024 52.9472 53.1729 52.9472 61.5233C52.9472 63.3287 53.3986 65.1342 53.85 66.714C53.1729 66.4883 52.2702 66.4883 51.5931 66.4883C43.2428 66.4883 36.4722 73.2589 36.4722 81.6092C36.4722 89.7339 43.0171 96.5044 51.1418 96.7301H89.9596C99.8897 95.6017 107.789 87.7027 107.789 77.7726Z" fill="#57A0EE" stroke="white" stroke-width="1.2" stroke-linejoin="round"/>
</g>
<g id="Group_3">
<g id="Group_4">
<path id="Vector_2" d="M52.0445 100.567V111.851" stroke="#57A0EE" stroke-width="1.2" stroke-linecap="round"/>
<path id="Vector_3" d="M56.0341 102.219L48.0549 110.198" stroke="#57A0EE" stroke-linecap="round"/>
<path id="Vector_4" d="M57.6866 106.209H46.4024" stroke="#57A0EE" stroke-linecap="round"/>
<path id="Vector_5" d="M56.0341 110.198L48.0549 102.219" stroke="#57A0EE" stroke-linecap="round"/>
</g>
</g>
<g id="Group_5">
<g id="Group_6">
<path id="Vector_6" d="M70.0993 100.567V111.851" stroke="#57A0EE" stroke-width="1.2" stroke-linecap="round"/>
<path id="Vector_7" d="M74.0889 102.219L66.1097 110.198" stroke="#57A0EE" stroke-linecap="round"/>
<path id="Vector_8" d="M75.7414 106.209H64.4572" stroke="#57A0EE" stroke-linecap="round"/>
<path id="Vector_9" d="M74.0889 110.198L66.1097 102.219" stroke="#57A0EE" stroke-linecap="round"/>
</g>
</g>
<g id="Group_7">
<g id="Group_8">
<path id="Vector_10" d="M90.4109 100.567V111.851" stroke="#57A0EE" stroke-width="1.2" stroke-linecap="round"/>
<path id="Vector_11" d="M94.4005 102.219L86.4214 110.198" stroke="#57A0EE" stroke-linecap="round"/>
<path id="Vector_12" d="M96.0531 106.209H84.7688" stroke="#57A0EE" stroke-linecap="round"/>
<path id="Vector_13" d="M94.4005 110.198L86.4214 102.219" stroke="#57A0EE" stroke-linecap="round"/>
</g>
</g>
</g>
</g>
</g>
</svg>
