<svg width="145" height="145" viewBox="0 0 145 145" fill="none" xmlns="http://www.w3.org/2000/svg">
<g id="snowy-2">
<g id="snowy-2_2">
<g id="Group">
<g id="Group_2">
<g id="Group_3">
<g id="Group_4">
<path id="Vector" d="M45.6987 79.4143V86.1848" stroke="#FFA500" stroke-width="2" stroke-linecap="round"/>
</g>
<g id="Group_5">
<path id="Vector_2" d="M31.3361 73.4651L26.5486 78.2526" stroke="#FFA500" stroke-width="2" stroke-linecap="round"/>
</g>
<g id="Group_6">
<path id="Vector_3" d="M25.387 59.1026H18.6165" stroke="#FFA500" stroke-width="2" stroke-linecap="round"/>
</g>
<g id="Group_7">
<path id="Vector_4" d="M31.3361 44.7401L26.5486 39.9526" stroke="#FFA500" stroke-width="2" stroke-linecap="round"/>
</g>
<g id="Group_8">
<path id="Vector_5" d="M45.6987 38.791V32.0204" stroke="#FFA500" stroke-width="2" stroke-linecap="round"/>
</g>
<g id="Group_9">
<path id="Vector_6" d="M60.0612 44.7401L64.8487 39.9526" stroke="#FFA500" stroke-width="2" stroke-linecap="round"/>
</g>
<g id="Group_10">
<path id="Vector_7" d="M66.0103 59.1026H72.7809" stroke="#FFA500" stroke-width="2" stroke-linecap="round"/>
</g>
<g id="Group_11">
<path id="Vector_8" d="M60.0612 73.4651L64.8487 78.2526" stroke="#FFA500" stroke-width="2" stroke-linecap="round"/>
</g>
</g>
<path id="Vector_9" d="M45.6987 70.3869C51.9308 70.3869 56.9829 65.3348 56.9829 59.1026C56.9829 52.8705 51.9308 47.8184 45.6987 47.8184C39.4666 47.8184 34.4144 52.8705 34.4144 59.1026C34.4144 65.3348 39.4666 70.3869 45.6987 70.3869Z" fill="#FFA500" stroke="#FFA500" stroke-width="2"/>
</g>
<g id="Group_12">
<path id="Vector_10" d="M108.213 78.0602C108.213 67.6787 99.863 59.554 89.7072 59.554C87.4503 59.554 85.4192 60.0054 83.388 60.6824C82.711 53.0091 76.3918 46.69 68.4928 46.69C60.1425 46.69 53.3719 53.4605 53.3719 61.8109C53.3719 63.6163 53.8233 65.4218 54.2746 67.0016C53.5976 66.7759 52.6949 66.7759 52.0178 66.7759C43.6675 66.7759 36.8969 73.5465 36.8969 81.8968C36.8969 90.0215 43.4418 96.792 51.5664 97.0177H90.3842C100.314 95.8893 108.213 87.9903 108.213 78.0602Z" fill="#57A0EE" stroke="white" stroke-width="1.2" stroke-linejoin="round"/>
</g>
</g>
<g id="Group_13">
<g id="Group_14">
<path id="Vector_11" d="M72.7809 100.854V112.139" stroke="#57A0EE" stroke-width="1.2" stroke-linecap="round"/>
<path id="Vector_12" d="M76.7704 102.507L68.7913 110.486" stroke="#57A0EE" stroke-linecap="round"/>
<path id="Vector_13" d="M78.423 106.496H67.1387" stroke="#57A0EE" stroke-linecap="round"/>
<path id="Vector_14" d="M76.7704 110.486L68.7913 102.507" stroke="#57A0EE" stroke-linecap="round"/>
</g>
</g>
</g>
</g>
</svg>
