<svg width="146" height="145" viewBox="0 0 146 145" fill="none" xmlns="http://www.w3.org/2000/svg">
<g id="snowy-4">
<g id="snowy-4_2">
<g id="Group">
<g id="Group_2">
<path id="Vector" d="M108.364 77.7726C108.364 67.3911 100.014 59.2664 89.8578 59.2664C87.601 59.2664 85.5698 59.7178 83.5386 60.3948C82.8616 52.7216 76.5424 46.4024 68.6434 46.4024C60.2931 46.4024 53.5225 53.1729 53.5225 61.5233C53.5225 63.3287 53.9739 65.1342 54.4253 66.714C53.7482 66.4883 52.8455 66.4883 52.1684 66.4883C43.8181 66.4883 37.0475 73.2589 37.0475 81.6092C37.0475 89.7339 43.5924 96.5044 51.7171 96.7301H90.5349C100.465 95.6017 108.364 87.7027 108.364 77.7726Z" fill="#57A0EE" stroke="white" stroke-width="1.2" stroke-linejoin="round"/>
</g>
<g id="Group_3">
<g id="Group_4">
<path id="Vector_2" d="M70.6746 100.567V111.851" stroke="#57A0EE" stroke-width="1.2" stroke-linecap="round"/>
<path id="Vector_3" d="M74.6642 102.219L66.685 110.198" stroke="#57A0EE" stroke-linecap="round"/>
<path id="Vector_4" d="M76.3167 106.209H65.0325" stroke="#57A0EE" stroke-linecap="round"/>
<path id="Vector_5" d="M74.6642 110.198L66.685 102.219" stroke="#57A0EE" stroke-linecap="round"/>
</g>
</g>
</g>
</g>
</g>
</svg>
