<svg width="145" height="145" viewBox="0 0 145 145" fill="none" xmlns="http://www.w3.org/2000/svg">
<g id="snowy-3">
<g id="snowy-3_2">
<g id="Group">
<g id="Group_2">
<g id="Group_3">
<g id="Group_4">
<path id="Vector" d="M45.137 79.1267V85.8972" stroke="#FFA500" stroke-width="2" stroke-linecap="round"/>
</g>
<g id="Group_5">
<path id="Vector_2" d="M30.7745 73.1776L25.987 77.9651" stroke="#FFA500" stroke-width="2" stroke-linecap="round"/>
</g>
<g id="Group_6">
<path id="Vector_3" d="M24.8254 58.815H18.0548" stroke="#FFA500" stroke-width="2" stroke-linecap="round"/>
</g>
<g id="Group_7">
<path id="Vector_4" d="M30.7745 44.4525L25.987 39.665" stroke="#FFA500" stroke-width="2" stroke-linecap="round"/>
</g>
<g id="Group_8">
<path id="Vector_5" d="M45.137 38.5034V31.7328" stroke="#FFA500" stroke-width="2" stroke-linecap="round"/>
</g>
<g id="Group_9">
<path id="Vector_6" d="M59.4995 44.4525L64.287 39.665" stroke="#FFA500" stroke-width="2" stroke-linecap="round"/>
</g>
<g id="Group_10">
<path id="Vector_7" d="M65.4487 58.815H72.2192" stroke="#FFA500" stroke-width="2" stroke-linecap="round"/>
</g>
<g id="Group_11">
<path id="Vector_8" d="M59.4995 73.1776L64.287 77.9651" stroke="#FFA500" stroke-width="2" stroke-linecap="round"/>
</g>
</g>
<path id="Vector_9" d="M45.137 70.0993C51.3691 70.0993 56.4213 65.0472 56.4213 58.815C56.4213 52.5829 51.3691 47.5308 45.137 47.5308C38.9049 47.5308 33.8528 52.5829 33.8528 58.815C33.8528 65.0472 38.9049 70.0993 45.137 70.0993Z" fill="#FFA500" stroke="#FFA500" stroke-width="2"/>
</g>
<g id="Group_12">
<path id="Vector_10" d="M107.652 77.7726C107.652 67.3911 99.3014 59.2664 89.1455 59.2664C86.8887 59.2664 84.8575 59.7178 82.8264 60.3948C82.1493 52.7216 75.8301 46.4024 67.9312 46.4024C59.5808 46.4024 52.8103 53.1729 52.8103 61.5233C52.8103 63.3287 53.2616 65.1342 53.713 66.714C53.0359 66.4883 52.1332 66.4883 51.4562 66.4883C43.1058 66.4883 36.3353 73.2589 36.3353 81.6092C36.3353 89.7339 42.8801 96.5044 51.0048 96.7301H89.8226C99.7527 95.6017 107.652 87.7027 107.652 77.7726Z" fill="#57A0EE" stroke="white" stroke-width="1.2" stroke-linejoin="round"/>
</g>
<g id="Group_13">
<g id="Group_14">
<path id="Vector_11" d="M60.935 100.567V111.851" stroke="#57A0EE" stroke-width="1.2" stroke-linecap="round"/>
<path id="Vector_12" d="M64.9246 102.219L56.9454 110.198" stroke="#57A0EE" stroke-linecap="round"/>
<path id="Vector_13" d="M66.5771 106.209H55.2928" stroke="#57A0EE" stroke-linecap="round"/>
<path id="Vector_14" d="M64.9246 110.198L56.9454 102.219" stroke="#57A0EE" stroke-linecap="round"/>
</g>
</g>
<g id="Group_15">
<g id="Group_16">
<path id="Vector_15" d="M81.2466 100.567V111.851" stroke="#57A0EE" stroke-width="1.2" stroke-linecap="round"/>
<path id="Vector_16" d="M85.2362 102.219L77.257 110.198" stroke="#57A0EE" stroke-linecap="round"/>
<path id="Vector_17" d="M86.8887 106.209H75.6045" stroke="#57A0EE" stroke-linecap="round"/>
<path id="Vector_18" d="M85.2362 110.198L77.257 102.219" stroke="#57A0EE" stroke-linecap="round"/>
</g>
</g>
</g>
</g>
</g>
</svg>
