<svg width="146" height="145" viewBox="0 0 146 145" fill="none" xmlns="http://www.w3.org/2000/svg">
<g id="snowy-1">
<g id="snowy-1_2">
<g id="Group">
<g id="Group_2">
<g id="Group_3">
<g id="Group_4">
<path id="Vector" d="M45.9863 83.4766V91.6013" stroke="#FFA500" stroke-width="2.4" stroke-linecap="round"/>
</g>
<g id="Group_5">
<path id="Vector_2" d="M28.7513 76.3376L23.0063 82.0826" stroke="#FFA500" stroke-width="2.4" stroke-linecap="round"/>
</g>
<g id="Group_6">
<path id="Vector_3" d="M21.6123 59.1026H13.4877" stroke="#FFA500" stroke-width="2.4" stroke-linecap="round"/>
</g>
<g id="Group_7">
<path id="Vector_4" d="M28.7513 41.8676L23.0063 36.1226" stroke="#FFA500" stroke-width="2.4" stroke-linecap="round"/>
</g>
<g id="Group_8">
<path id="Vector_5" d="M45.9863 34.7287V26.604" stroke="#FFA500" stroke-width="2.4" stroke-linecap="round"/>
</g>
<g id="Group_9">
<path id="Vector_6" d="M63.2213 41.8676L68.9663 36.1226" stroke="#FFA500" stroke-width="2.4" stroke-linecap="round"/>
</g>
<g id="Group_10">
<path id="Vector_7" d="M70.3603 59.1026H78.4849" stroke="#FFA500" stroke-width="2.4" stroke-linecap="round"/>
</g>
<g id="Group_11">
<path id="Vector_8" d="M63.2213 76.3376L68.9663 82.0826" stroke="#FFA500" stroke-width="2.4" stroke-linecap="round"/>
</g>
</g>
<path id="Vector_9" d="M45.9863 72.6437C53.4648 72.6437 59.5274 66.5812 59.5274 59.1026C59.5274 51.6241 53.4648 45.5615 45.9863 45.5615C38.5077 45.5615 32.4452 51.6241 32.4452 59.1026C32.4452 66.5812 38.5077 72.6437 45.9863 72.6437Z" fill="#FFA500" stroke="#FFA500" stroke-width="2.4"/>
</g>
<g id="Group_12">
<path id="Vector_10" d="M103.638 79.6174C103.638 70.7931 96.5397 63.8872 87.9073 63.8872C85.989 63.8872 84.2625 64.2708 82.536 64.8463C81.9605 58.324 76.5892 52.9527 69.8751 52.9527C62.7773 52.9527 57.0223 58.7077 57.0223 65.8055C57.0223 67.3401 57.406 68.8748 57.7896 70.2176C57.2141 70.0258 56.4468 70.0258 55.8713 70.0258C48.7735 70.0258 43.0186 75.7808 43.0186 82.8785C43.0186 89.7845 48.5817 95.5395 55.4876 95.7313H88.4828C96.9234 94.7721 103.638 88.058 103.638 79.6174Z" fill="#57A0EE" stroke="white" stroke-width="1.275" stroke-linejoin="round"/>
</g>
</g>
<g id="Group_13">
<g id="Group_14">
<g id="Group_15">
<path id="Vector_11" d="M61.7842 98.5975V109.882" stroke="#57A0EE" stroke-width="1.2" stroke-linecap="round"/>
<path id="Vector_12" d="M65.7738 100.25L57.7947 108.229" stroke="#57A0EE" stroke-linecap="round"/>
<path id="Vector_13" d="M67.4264 104.24H56.1421" stroke="#57A0EE" stroke-linecap="round"/>
<path id="Vector_14" d="M65.7738 108.229L57.7947 100.25" stroke="#57A0EE" stroke-linecap="round"/>
</g>
</g>
<g id="Group_16">
<g id="Group_17">
<path id="Vector_15" d="M82.0959 98.5975V109.882" stroke="#57A0EE" stroke-width="1.2" stroke-linecap="round"/>
<path id="Vector_16" d="M86.0855 100.25L78.1063 108.229" stroke="#57A0EE" stroke-linecap="round"/>
<path id="Vector_17" d="M87.738 104.24H76.4538" stroke="#57A0EE" stroke-linecap="round"/>
<path id="Vector_18" d="M86.0855 108.229L78.1063 100.25" stroke="#57A0EE" stroke-linecap="round"/>
</g>
</g>
</g>
</g>
</g>
</svg>
