<svg width="145" height="145" viewBox="0 0 145 145" fill="none" xmlns="http://www.w3.org/2000/svg">
<g id="snowy-5">
<g id="snowy-5_2">
<g id="Group">
<g id="Group_2">
<path id="Vector" d="M108.076 77.7726C108.076 67.3911 99.726 59.2664 89.5702 59.2664C87.3134 59.2664 85.2822 59.7178 83.251 60.3948C82.574 52.7216 76.2548 46.4024 68.3558 46.4024C60.0055 46.4024 53.2349 53.1729 53.2349 61.5233C53.2349 63.3287 53.6863 65.1342 54.1377 66.714C53.4606 66.4883 52.5579 66.4883 51.8808 66.4883C43.5305 66.4883 36.7599 73.2589 36.7599 81.6092C36.7599 89.7339 43.3048 96.5044 51.4295 96.7301H90.2473C100.177 95.6017 108.076 87.7027 108.076 77.7726Z" fill="#57A0EE" stroke="white" stroke-width="1.2" stroke-linejoin="round"/>
</g>
<g id="Group_3">
<g id="Group_4">
<path id="Vector_2" d="M61.3596 100.567V111.851" stroke="#57A0EE" stroke-width="1.2" stroke-linecap="round"/>
<path id="Vector_3" d="M65.3492 102.219L57.37 110.198" stroke="#57A0EE" stroke-linecap="round"/>
<path id="Vector_4" d="M67.0017 106.209H55.7175" stroke="#57A0EE" stroke-linecap="round"/>
<path id="Vector_5" d="M65.3492 110.198L57.37 102.219" stroke="#57A0EE" stroke-linecap="round"/>
</g>
</g>
<g id="Group_5">
<g id="Group_6">
<path id="Vector_6" d="M81.6712 100.567V111.851" stroke="#57A0EE" stroke-width="1.2" stroke-linecap="round"/>
<path id="Vector_7" d="M85.6608 102.219L77.6817 110.198" stroke="#57A0EE" stroke-linecap="round"/>
<path id="Vector_8" d="M87.3134 106.209H76.0291" stroke="#57A0EE" stroke-linecap="round"/>
<path id="Vector_9" d="M85.6608 110.198L77.6817 102.219" stroke="#57A0EE" stroke-linecap="round"/>
</g>
</g>
</g>
</g>
</g>
</svg>
