<svg width="146" height="145" viewBox="0 0 146 145" fill="none" xmlns="http://www.w3.org/2000/svg">
<g id="thunder">
<g id="thunder_2">
<g id="Group">
<g id="Group_2">
<path id="Vector" d="M88.0088 57.0998C88.0088 50.8709 82.9986 45.9961 76.9051 45.9961C75.551 45.9961 74.3323 46.267 73.1136 46.6732C72.7074 42.0692 68.9159 38.2777 64.1765 38.2777C59.1663 38.2777 55.104 42.34 55.104 47.3502C55.104 48.4335 55.3748 49.5168 55.6456 50.4647C55.2394 50.3293 54.6977 50.3293 54.2915 50.3293C49.2813 50.3293 45.219 54.3916 45.219 59.4018C45.219 64.2766 49.1459 68.3389 54.0207 68.4744H77.3114C83.2694 67.7973 88.0088 63.0579 88.0088 57.0998Z" fill="#91C0F8" stroke="white" stroke-width="0.72" stroke-linejoin="round"/>
</g>
<g id="Group_3">
<path id="Vector_2" d="M108.501 77.7726C108.501 67.3911 100.151 59.2664 89.9948 59.2664C87.738 59.2664 85.7068 59.7178 83.6757 60.3948C82.9986 52.7216 76.6794 46.4024 68.7805 46.4024C60.4301 46.4024 53.6596 53.1729 53.6596 61.5233C53.6596 63.3287 54.1109 65.1342 54.5623 66.714C53.8853 66.4883 52.9825 66.4883 52.3055 66.4883C43.9551 66.4883 37.1846 73.2589 37.1846 81.6092C37.1846 89.7339 43.7294 96.5044 51.8541 96.7301H90.6719C100.602 95.6017 108.501 87.7027 108.501 77.7726Z" fill="#57A0EE" stroke="white" stroke-width="1.2" stroke-linejoin="round"/>
</g>
<g id="Group_4">
<path id="Vector_3" d="M64.4022 78.0434H81.1931L70.0894 97.5426H80.6515L56.8192 125.437L66.0271 104.584H55.7359L64.4022 78.0434Z" fill="#FFA500" stroke="white" stroke-width="1.2"/>
</g>
</g>
</g>
</g>
</svg>
